<?xml version="1.0" encoding="utf-8"?>
<!-- Generator: Adobe Illustrator 23.0.4, SVG Export Plug-In . SVG Version: 6.00 Build 0)  -->
<svg version="1.1" id="Livello_1" xmlns="http://www.w3.org/2000/svg" xmlns:xlink="http://www.w3.org/1999/xlink" x="0px" y="0px"
	 viewBox="0 0 2178.2 500" style="enable-background:new 0 0 2178.2 500;" xml:space="preserve">
<style type="text/css">
	.st0{fill:#FFFFFF;}
	.st1{fill:#333333;}
	.st2{fill:#3C3C3B;}
	.st3{clip-path:url(#SVGID_3_);}
	.st4{fill:#678C45;}
	.st5{fill:#9DBD53;}
</style>
<g>
	<title>Tavola disegno 10</title>
	<path class="st0" d="M248.9,389.4l-2.2-0.1h2L248.9,389.4z"/>
	<path class="st1" d="M324.1,236.9c0-14.6-14.2-30.1-38.8-30.1c-27.6,0-57.9,20.3-62.6,60.7c-4.7,40.8,20.7,58.9,46.3,58.9
		c25.6,0,39-10,52.7-23.3c-11.8-14.8-27-8-29.9-6.4c-3.2,1.6-7.4,3.8-15.8,3.8c-9.9,0-20-4.4-20-22.9
		C319.2,271.4,324.1,251.5,324.1,236.9z M292.7,239.3c-0.4,4.5-2.2,12.3-34.3,16.6c6.8-24,19.6-25.8,25.6-25.8
		C289.6,230.1,293.1,234.5,292.7,239.3z M185.5,243.2c0,0-13.6,42.7-14.7,46.3c-0.4-3.6-10.4-80.3-10.4-80.3
		c-23.2,0-35.6,16.5-42.1,34c0,0-16.5,42.8-17.9,46.5c-0.1-3.3-2.5-46-2.5-46c-1.4-21.4-21-34.4-36.8-34.4l19.1,116.2
		c24.3-0.1,37.4-16.5,44.2-34c0,0,14.6-37.8,15.2-39.5c0.1,1.6,10.5,73.5,10.5,73.5c24.4,0,37.5-15.4,44.5-32.2l34.2-83.9
		C204.8,209.3,192.1,225.7,185.5,243.2z M413.6,206.6c-15,0-26.5,8.2-36.2,20.2v-0.1l8.7-69.8c-20,0-36.2,17.3-39.3,43.1
		l-15.1,124.7c11.5,0,23.7-3.3,30.2-11.8c5.8,7.6,14.6,13.6,27.6,13.6c33.7,0,56.7-39.1,56.7-75.8
		C446,217.1,429.8,206.6,413.6,206.6z M410.4,266.5c-3.5,20.5-14.9,34.4-25.9,34.4c-11.1,0-15.8-4.9-15.8-4.9
		c2.1-17.9,3.4-28.9,7.5-38.4c4-9.5,13.6-24.6,23.6-24.6C409.5,233,414,246,410.4,266.5z M530.2,209.3h-23.5l0.1-1.2
		c1.6-15.3,5.2-23.4,17.2-24.7c8.2-0.8,11.8-5,12.7-9.7c0.7-3.6,2.9-16.2,2.9-16.2c-47.2-0.3-62,20.1-65.8,51.1l-0.1,0.7h-0.5
		c-7.7,0-16.1,8.7-17.5,19.6l-0.5,4H471l-13.2,109l-4,19.5c0.5,0,1.1,0.1,1.6,0.1c22.1-0.8,36.2-18.2,39.3-43.5l10.3-85.1h7.4
		c7.3,0,15.7-7.3,17.2-19.3L530.2,209.3z M652.4,207.3c-27.1,0-52.7,20-60.6,51.3c-7.9,31.3,4,68.4,43.9,68.4
		c39.8,0,62.8-38.6,62.8-70.7C698.5,224.3,676.9,207.3,652.4,207.3z M663.4,265.5c-1.4,14.2-7.7,35.8-24.8,35.8
		c-17.2,0-14.8-25.2-13.1-37.2c1.8-12.8,9-31,24.4-31C663.7,233.1,665,249.5,663.4,265.5z M832.4,243.2c0,0-13.6,42.7-14.7,46.3
		c-0.4-3.6-10.4-80.3-10.4-80.3c-23.2,0-35.6,16.5-42.1,34c0,0-16.5,42.8-17.9,46.5c-0.1-3.3-2.5-46-2.5-46
		c-1.4-21.4-21-34.4-36.8-34.4l19,116.2c24.3-0.1,37.4-16.5,44.2-34c0,0,14.6-37.8,15.1-39.5c0.2,1.6,10.5,73.5,10.5,73.5
		c24.4,0,37.5-15.4,44.5-32.2l34.2-83.9C851.6,209.3,838.9,225.7,832.4,243.2z M552.4,157.5l-19.8,159.3l0,0l-4,19.6
		c0.5,0,1.1,0.1,1.6,0.1l0,0c21.3-0.3,36.4-18.9,39.2-42.4l11.4-91.4C584.3,174.8,567.6,157.5,552.4,157.5z"/>
	<path id="Shape-2" class="st0" d="M1096.1,224.7l-7.5,7.5l29.8,29.8H925.7v10.6h192.7l-29.8,29.8l7.5,7.5l42.6-42.6L1096.1,224.7z"
		/>
	<g>
		<g>
			<polygon id="SVGID_1_" class="st2" points="1096.1,224.7 1088.6,232.2 1118.4,262 925.7,262 925.7,272.6 1118.4,272.6 
				1088.6,302.5 1096.1,309.9 1138.7,267.3 			"/>
		</g>
		<g>
			<defs>
				<polygon id="SVGID_2_" points="1096.1,224.7 1088.6,232.2 1118.4,262 925.7,262 925.7,272.6 1118.4,272.6 1088.6,302.5 
					1096.1,309.9 1138.7,267.3 				"/>
			</defs>
			<clipPath id="SVGID_3_">
				<use xlink:href="#SVGID_2_"  style="overflow:visible;"/>
			</clipPath>
			<g id="Icon-2" class="st3">
				<g id="_Color" transform="translate(-10 -22)">
					<rect id="Color" x="882.5" y="129.6" class="st2" width="319.4" height="319.4"/>
				</g>
			</g>
		</g>
	</g>
	<g>
		<g>
			<path id="s_2_" class="st1" d="M1519.1,256.3c-7.8-4.3-12-7.8-12-12.8c0-6.4,5.6-10.3,14.4-10.3c10.3,0,19.4,4.3,19.4,4.3
				l7.2-22.1c0,0-6.6-5.2-26.2-5.2c-27.2,0-46.2,15.7-46.2,37.5c0,12.4,8.9,21.8,20.6,28.7c9.5,5.4,12.8,9.3,12.8,14.8
				c0,6-4.7,10.7-13.6,10.7c-13.2,0-25.6-6.8-25.6-6.8l-7.6,22.1c0,0,11.5,7.6,30.7,7.6c28,0,48-13.8,48-38.5
				C1541.6,272.8,1531.3,263.3,1519.1,256.3z"/>
			<path id="h_2_" class="st1" d="M1630.9,209.9c-13.8,0-24.5,6.6-33,16.5l-0.4-0.2l12-62.7h-31.1L1548,322.9h31.1l10.3-54.4
				c4.1-20.6,14.6-33.2,24.5-33.2c7,0,9.7,4.7,9.7,11.5c0,4.3-0.4,9.5-1.4,13.8l-11.7,62.5h31.1l12.2-64.3
				c1.4-6.8,2.3-14.8,2.3-20.4C1656.2,220.4,1646.9,209.9,1630.9,209.9z"/>
			<path id="o_1_" class="st1" d="M1726.7,209.9c-37.5,0-62.5,33.8-62.5,71.5c0,24.1,14.8,43.7,42.9,43.7c36.9,0,61.6-33,61.6-71.5
				C1769,231.2,1756,209.9,1726.7,209.9z M1711.5,301c-10.7,0-15-9.1-15-20.4c0-17.9,9.3-47,26.2-47c11.1,0,14.6,9.5,14.6,18.8
				C1737.2,271.8,1727.9,301,1711.5,301z"/>
			<path id="p_1_" class="st1" d="M1848.7,209.9c-21,0-33,18.6-33,18.6h-0.4l1.9-16.7h-27.6c-1.4,11.3-3.9,28.4-6.4,41.4
				l-21.6,114.2h31.1l8.7-46.2h0.6c0,0,6.4,4.1,18.3,4.1c36.7,0,60.6-37.5,60.6-75.4C1880.9,228.7,1871.6,209.9,1848.7,209.9z
				 M1819.1,301.7c-8,0-12.8-4.5-12.8-4.5l5.2-29.1c3.7-19.4,13.8-32.4,24.5-32.4c9.5,0,12.4,8.9,12.4,17.1
				C1848.3,272.8,1836.4,301.7,1819.1,301.7z"/>
			<path id="dot_2_" class="st1" d="M1925.4,165c-9.9,0-17.9,7.8-17.9,18.1c0,9.3,5.8,15.7,14.6,15.7h0.4c9.7,0,18.1-6.6,18.3-18.1
				C1941.1,171.6,1934.9,165,1925.4,165z"/>
			<polygon id="i_2_" class="st1" points="1881.7,322.9 1913,322.9 1934.3,212.4 1902.7,212.4 			"/>
			<path id="f_2_" class="st1" d="M2013.4,212h-21.6l1-5.2c1.9-10.7,8-20.2,18.6-20.2c5.6,0,9.9,1.6,9.9,1.6l6.2-24.3
				c0,0-5.4-2.7-16.9-2.7c-11.1,0-22.1,3.1-30.5,10.3c-10.7,9.1-15.7,22.1-18.1,35.2l-0.8,5.2h-14.4l-4.5,23.5h14.4l-16.5,87.2h31.1
				l16.5-87.2h21.4L2013.4,212z"/>
			<path id="y_2_" class="st1" d="M2088.5,212.4c0,0-19.6,49.1-28.2,75.9h-0.4c-0.6-8.7-7.6-75.9-7.6-75.9h-32.8l18.8,101.4
				c0.4,2.3,0.2,3.7-0.6,5.2c-3.7,7-9.7,13.8-16.9,18.8c-5.8,4.3-12.4,7-17.5,8.9l8.7,26.4c6.4-1.4,19.4-6.6,30.5-16.9
				c14.2-13.4,27.4-33.8,40.8-61.8l38.1-81.8C2121.2,212.4,2088.5,212.4,2088.5,212.4z"/>
		</g>
		<g>
			<path class="st4" d="M1349.5,366.4l77.1-16.7c0,0-27.8-188.2-28-189.4c-0.2-1.2-1.2-2.1-2.3-2.1s-20.6-1.4-20.6-1.4
				s-13.6-13.6-15.3-15c-0.4-0.4-0.8-0.6-1.2-0.8L1349.5,366.4z"/>
			<path class="st5" d="M1355.9,140.5c-0.2,0-0.6,0.2-0.8,0.2s-3.1,0.8-7.6,2.3c-4.5-13.2-12.6-25.4-26.8-25.4c-0.4,0-0.8,0-1.2,0
				c-4.1-5.2-9.1-7.4-13.4-7.4c-33.2,0-49.1,41.4-54,62.5c-12.8,3.9-22.1,6.8-23.1,7.2c-7.2,2.3-7.4,2.5-8.2,9.3
				c-0.8,4.9-19.6,150.3-19.6,150.3l144.9,27.2L1355.9,140.5z M1318.2,150.6c0,0.4,0,1,0,1.4c-8,2.5-16.9,5.2-25.6,7.8
				c4.9-19,14.2-28.2,22.3-31.7C1316.9,133.5,1318.2,140.7,1318.2,150.6z M1305,119c1.4,0,2.9,0.4,4.3,1.4
				c-10.5,4.9-22.1,17.5-26.8,42.7c-7,2.3-13.8,4.3-20.2,6.2C1267.9,150.2,1281.3,119,1305,119z M1310.7,231c0,0-8.7-4.5-19-4.5
				c-15.5,0-16.1,9.7-16.1,12.2c0,13.2,34.6,18.3,34.6,49.5c0,24.5-15.5,40.2-36.5,40.2c-25.1,0-37.9-15.7-37.9-15.7l6.8-22.3
				c0,0,13.2,11.3,24.3,11.3c7.2,0,10.3-5.8,10.3-9.9c0-17.3-28.4-18.1-28.4-46.6c0-23.9,17.1-47.2,51.9-47.2c13.4,0,20,3.9,20,3.9
				L1310.7,231z M1323.9,126.7c7.4,0.8,12.2,9.3,15.3,18.8c-3.7,1.2-7.8,2.5-12.4,3.9c0-0.8,0-1.6,0-2.7
				C1326.8,138.6,1325.8,132,1323.9,126.7z"/>
		</g>
	</g>
</g>
</svg>
